<?xml version="1.0" encoding="utf-8" standalone="no"?>
<!DOCTYPE svg PUBLIC "-//W3C//DTD SVG 1.1//EN"
  "http://www.w3.org/Graphics/SVG/1.1/DTD/svg11.dtd">
<svg xmlns:xlink="http://www.w3.org/1999/xlink" width="992.16pt" height="712.8pt" viewBox="0 0 992.16 712.8" xmlns="http://www.w3.org/2000/svg" version="1.1">
 <metadata>
  <rdf:RDF xmlns:dc="http://purl.org/dc/elements/1.1/" xmlns:cc="http://creativecommons.org/ns#" xmlns:rdf="http://www.w3.org/1999/02/22-rdf-syntax-ns#">
   <cc:Work>
    <dc:type rdf:resource="http://purl.org/dc/dcmitype/StillImage"/>
    <dc:date>2025-12-11T12:03:32.664925</dc:date>
    <dc:format>image/svg+xml</dc:format>
    <dc:creator>
     <cc:Agent>
      <dc:title>Matplotlib v3.10.3, https://matplotlib.org/</dc:title>
     </cc:Agent>
    </dc:creator>
   </cc:Work>
  </rdf:RDF>
 </metadata>
 <defs>
  <style type="text/css">*{stroke-linejoin: round; stroke-linecap: butt}</style>
 </defs>
 <g id="figure_1">
  <g id="patch_1">
   <path d="M 0 712.8
L 992.16 712.8
L 992.16 0
L 0 0
z
" style="fill: #ffffff"/>
  </g>
  <g id="axes_1">
   <g id="patch_2">
    <path d="M 496.08 461.16
C 523.862677 461.16 550.511187 450.121826 570.156506 430.476506
C 589.801826 410.831187 600.84 384.182677 600.84 356.4
C 600.84 328.617323 589.801826 301.968813 570.156506 282.323494
C 550.511187 262.678174 523.862677 251.64 496.08 251.64
C 468.297323 251.64 441.648813 262.678174 422.003494 282.323494
C 402.358174 301.968813 391.32 328.617323 391.32 356.4
C 391.32 384.182677 402.358174 410.831187 422.003494 430.476506
C 441.648813 450.121826 468.297323 461.16 496.08 461.16
z
" clip-path="url(#pad4d245279)" style="fill: #e3f2fd; stroke: #1565c0; stroke-width: 3; stroke-linejoin: miter"/>
   </g>
   <g id="patch_3">
    <path d="M 576.396 266.176607
C 589.361249 266.176607 601.797221 261.025459 610.965036 251.857644
C 620.132852 242.689828 625.284 230.253856 625.284 217.288607
C 625.284 204.323358 620.132852 191.887387 610.965036 182.719571
C 601.797221 173.551755 589.361249 168.400607 576.396 168.400607
C 563.430751 168.400607 550.994779 173.551755 541.826964 182.719571
C 532.659148 191.887387 527.508 204.323358 527.508 217.288607
C 527.508 230.253856 532.659148 242.689828 541.826964 251.857644
C 550.994779 261.025459 563.430751 266.176607 576.396 266.176607
z
" clip-path="url(#pad4d245279)" style="fill: #ffffff; stroke: #2e7d32; stroke-width: 2; stroke-linejoin: miter"/>
   </g>
   <g id="patch_4">
    <path d="M 335.448 405.288
C 348.413249 405.288 360.849221 400.136852 370.017036 390.969036
C 379.184852 381.801221 384.336 369.365249 384.336 356.4
C 384.336 343.434751 379.184852 330.998779 370.017036 321.830964
C 360.849221 312.663148 348.413249 307.512 335.448 307.512
C 322.482751 307.512 310.046779 312.663148 300.878964 321.830964
C 291.711148 330.998779 286.56 343.434751 286.56 356.4
C 286.56 369.365249 291.711148 381.801221 300.878964 390.969036
C 310.046779 400.136852 322.482751 405.288 335.448 405.288
z
" clip-path="url(#pad4d245279)" style="fill: #ffffff; stroke: #ef6c00; stroke-width: 2; stroke-linejoin: miter"/>
   </g>
   <g id="patch_5">
    <path d="M 576.396 544.399393
C 589.361249 544.399393 601.797221 539.248245 610.965036 530.080429
C 620.132852 520.912613 625.284 508.476642 625.284 495.511393
C 625.284 482.546144 620.132852 470.110172 610.965036 460.942356
C 601.797221 451.774541 589.361249 446.623393 576.396 446.623393
C 563.430751 446.623393 550.994779 451.774541 541.826964 460.942356
C 532.659148 470.110172 527.508 482.546144 527.508 495.511393
C 527.508 508.476642 532.659148 520.912613 541.826964 530.080429
C 550.994779 539.248245 563.430751 544.399393 576.396 544.399393
z
" clip-path="url(#pad4d245279)" style="fill: #ffffff; stroke: #f9a825; stroke-width: 2; stroke-linejoin: miter"/>
   </g>
   <g id="patch_6">
    <path d="M 42.12 468.144
L 216.72 468.144
Q 223.704 468.144 223.704 461.16
L 223.704 251.64
Q 223.704 244.656 216.72 244.656
L 42.12 244.656
Q 35.136 244.656 35.136 251.64
L 35.136 461.16
Q 35.136 468.144 42.12 468.144
z
" clip-path="url(#pad4d245279)" style="fill: #e8f5e9; stroke: #2e7d32; stroke-width: 2; stroke-linejoin: miter"/>
   </g>
   <g id="patch_7">
    <path d="M 56.088 322.8768
L 202.752 322.8768
Q 204.1488 322.8768 204.1488 321.48
L 204.1488 286.56
Q 204.1488 285.1632 202.752 285.1632
L 56.088 285.1632
Q 54.6912 285.1632 54.6912 286.56
L 54.6912 321.48
Q 54.6912 322.8768 56.088 322.8768
z
" clip-path="url(#pad4d245279)" style="fill: #ffffff; stroke: #2e7d32; stroke-linejoin: miter"/>
   </g>
   <g id="patch_8">
    <path d="M 56.088 364.7808
L 202.752 364.7808
Q 204.1488 364.7808 204.1488 363.384
L 204.1488 328.464
Q 204.1488 327.0672 202.752 327.0672
L 56.088 327.0672
Q 54.6912 327.0672 54.6912 328.464
L 54.6912 363.384
Q 54.6912 364.7808 56.088 364.7808
z
" clip-path="url(#pad4d245279)" style="fill: #ffffff; stroke: #2e7d32; stroke-linejoin: miter"/>
   </g>
   <g id="patch_9">
    <path d="M 56.088 406.6848
L 202.752 406.6848
Q 204.1488 406.6848 204.1488 405.288
L 204.1488 370.368
Q 204.1488 368.9712 202.752 368.9712
L 56.088 368.9712
Q 54.6912 368.9712 54.6912 370.368
L 54.6912 405.288
Q 54.6912 406.6848 56.088 406.6848
z
" clip-path="url(#pad4d245279)" style="fill: #fafafa; stroke-dasharray: 3.7,1.6; stroke-dashoffset: 0; stroke: #9e9e9e; stroke-linejoin: miter"/>
   </g>
   <g id="patch_10">
    <path d="M 56.088 448.5888
L 202.752 448.5888
Q 204.1488 448.5888 204.1488 447.192
L 204.1488 412.272
Q 204.1488 410.8752 202.752 410.8752
L 56.088 410.8752
Q 54.6912 410.8752 54.6912 412.272
L 54.6912 447.192
Q 54.6912 448.5888 56.088 448.5888
z
" clip-path="url(#pad4d245279)" style="fill: #fafafa; stroke-dasharray: 3.7,1.6; stroke-dashoffset: 0; stroke: #9e9e9e; stroke-linejoin: miter"/>
   </g>
   <g id="patch_11">
    <path d="M 775.44 468.144
L 950.04 468.144
Q 957.024 468.144 957.024 461.16
L 957.024 251.64
Q 957.024 244.656 950.04 244.656
L 775.44 244.656
Q 768.456 244.656 768.456 251.64
L 768.456 461.16
Q 768.456 468.144 775.44 468.144
z
" clip-path="url(#pad4d245279)" style="fill: #fff3e0; stroke: #ef6c00; stroke-width: 2; stroke-linejoin: miter"/>
   </g>
   <g id="patch_12">
    <path d="M 789.408 322.8768
L 936.072 322.8768
Q 937.4688 322.8768 937.4688 321.48
L 937.4688 286.56
Q 937.4688 285.1632 936.072 285.1632
L 789.408 285.1632
Q 788.0112 285.1632 788.0112 286.56
L 788.0112 321.48
Q 788.0112 322.8768 789.408 322.8768
z
" clip-path="url(#pad4d245279)" style="fill: #ffffff; stroke: #ef6c00; stroke-linejoin: miter"/>
   </g>
   <g id="patch_13">
    <path d="M 789.408 364.7808
L 936.072 364.7808
Q 937.4688 364.7808 937.4688 363.384
L 937.4688 328.464
Q 937.4688 327.0672 936.072 327.0672
L 789.408 327.0672
Q 788.0112 327.0672 788.0112 328.464
L 788.0112 363.384
Q 788.0112 364.7808 789.408 364.7808
z
" clip-path="url(#pad4d245279)" style="fill: #ffffff; stroke: #ef6c00; stroke-linejoin: miter"/>
   </g>
   <g id="patch_14">
    <path d="M 789.408 406.6848
L 936.072 406.6848
Q 937.4688 406.6848 937.4688 405.288
L 937.4688 370.368
Q 937.4688 368.9712 936.072 368.9712
L 789.408 368.9712
Q 788.0112 368.9712 788.0112 370.368
L 788.0112 405.288
Q 788.0112 406.6848 789.408 406.6848
z
" clip-path="url(#pad4d245279)" style="fill: #fafafa; stroke-dasharray: 3.7,1.6; stroke-dashoffset: 0; stroke: #9e9e9e; stroke-linejoin: miter"/>
   </g>
   <g id="patch_15">
    <path d="M 789.408 448.5888
L 936.072 448.5888
Q 937.4688 448.5888 937.4688 447.192
L 937.4688 412.272
Q 937.4688 410.8752 936.072 410.8752
L 789.408 410.8752
Q 788.0112 410.8752 788.0112 412.272
L 788.0112 447.192
Q 788.0112 448.5888 789.408 448.5888
z
" clip-path="url(#pad4d245279)" style="fill: #fafafa; stroke-dasharray: 3.7,1.6; stroke-dashoffset: 0; stroke: #9e9e9e; stroke-linejoin: miter"/>
   </g>
   <g id="patch_16">
    <path d="M 321.48 677.664
L 670.68 677.664
Q 677.664 677.664 677.664 670.68
L 677.664 565.92
Q 677.664 558.936 670.68 558.936
L 321.48 558.936
Q 314.496 558.936 314.496 565.92
L 314.496 670.68
Q 314.496 677.664 321.48 677.664
z
" clip-path="url(#pad4d245279)" style="fill: #f3e5f5; stroke: #7b1fa2; stroke-width: 2; stroke-linejoin: miter"/>
   </g>
   <g id="patch_17">
    <path d="M 42.12 644.1408
L 70.056 644.1408
Q 71.4528 644.1408 71.4528 642.744
L 71.4528 614.808
Q 71.4528 613.4112 70.056 613.4112
L 42.12 613.4112
Q 40.7232 613.4112 40.7232 614.808
L 40.7232 642.744
Q 40.7232 644.1408 42.12 644.1408
z
" clip-path="url(#pad4d245279)" style="fill: #ffffff; stroke: #2e7d32; stroke-linejoin: miter"/>
   </g>
   <g id="patch_18">
    <path d="M 42.12 679.0608
L 70.056 679.0608
Q 71.4528 679.0608 71.4528 677.664
L 71.4528 649.728
Q 71.4528 648.3312 70.056 648.3312
L 42.12 648.3312
Q 40.7232 648.3312 40.7232 649.728
L 40.7232 677.664
Q 40.7232 679.0608 42.12 679.0608
z
" clip-path="url(#pad4d245279)" style="fill: #fafafa; stroke-dasharray: 3.7,1.6; stroke-dashoffset: 0; stroke: #9e9e9e; stroke-linejoin: miter"/>
   </g>
   <g id="text_1">
    <!-- Thyra Extensible Plugin Architecture -->
    <g style="fill: #212121" transform="translate(309.668906 47.016562) scale(0.18 -0.18)">
     <defs>
      <path id="DejaVuSans-Bold-54" d="M 31 4666
L 4331 4666
L 4331 3756
L 2784 3756
L 2784 0
L 1581 0
L 1581 3756
L 31 3756
L 31 4666
z
" transform="scale(0.015625)"/>
      <path id="DejaVuSans-Bold-68" d="M 4056 2131
L 4056 0
L 2931 0
L 2931 347
L 2931 1625
Q 2931 2084 2911 2256
Q 2891 2428 2841 2509
Q 2775 2619 2662 2680
Q 2550 2741 2406 2741
Q 2056 2741 1856 2470
Q 1656 2200 1656 1722
L 1656 0
L 538 0
L 538 4863
L 1656 4863
L 1656 2988
Q 1909 3294 2193 3439
Q 2478 3584 2822 3584
Q 3428 3584 3742 3212
Q 4056 2841 4056 2131
z
" transform="scale(0.015625)"/>
      <path id="DejaVuSans-Bold-79" d="M 78 3500
L 1197 3500
L 2138 1125
L 2938 3500
L 4056 3500
L 2584 -331
Q 2363 -916 2067 -1148
Q 1772 -1381 1288 -1381
L 641 -1381
L 641 -647
L 991 -647
Q 1275 -647 1404 -556
Q 1534 -466 1606 -231
L 1638 -134
L 78 3500
z
" transform="scale(0.015625)"/>
      <path id="DejaVuSans-Bold-72" d="M 3138 2547
Q 2991 2616 2845 2648
Q 2700 2681 2553 2681
Q 2122 2681 1889 2404
Q 1656 2128 1656 1613
L 1656 0
L 538 0
L 538 3500
L 1656 3500
L 1656 2925
Q 1872 3269 2151 3426
Q 2431 3584 2822 3584
Q 2878 3584 2943 3579
Q 3009 3575 3134 3559
L 3138 2547
z
" transform="scale(0.015625)"/>
      <path id="DejaVuSans-Bold-61" d="M 2106 1575
Q 1756 1575 1579 1456
Q 1403 1338 1403 1106
Q 1403 894 1545 773
Q 1688 653 1941 653
Q 2256 653 2472 879
Q 2688 1106 2688 1447
L 2688 1575
L 2106 1575
z
M 3816 1997
L 3816 0
L 2688 0
L 2688 519
Q 2463 200 2181 54
Q 1900 -91 1497 -91
Q 953 -91 614 226
Q 275 544 275 1050
Q 275 1666 698 1953
Q 1122 2241 2028 2241
L 2688 2241
L 2688 2328
Q 2688 2594 2478 2717
Q 2269 2841 1825 2841
Q 1466 2841 1156 2769
Q 847 2697 581 2553
L 581 3406
Q 941 3494 1303 3539
Q 1666 3584 2028 3584
Q 2975 3584 3395 3211
Q 3816 2838 3816 1997
z
" transform="scale(0.015625)"/>
      <path id="DejaVuSans-Bold-20" transform="scale(0.015625)"/>
      <path id="DejaVuSans-Bold-45" d="M 588 4666
L 3834 4666
L 3834 3756
L 1791 3756
L 1791 2888
L 3713 2888
L 3713 1978
L 1791 1978
L 1791 909
L 3903 909
L 3903 0
L 588 0
L 588 4666
z
" transform="scale(0.015625)"/>
      <path id="DejaVuSans-Bold-78" d="M 1422 1791
L 159 3500
L 1344 3500
L 2059 2463
L 2784 3500
L 3969 3500
L 2706 1797
L 4031 0
L 2847 0
L 2059 1106
L 1281 0
L 97 0
L 1422 1791
z
" transform="scale(0.015625)"/>
      <path id="DejaVuSans-Bold-74" d="M 1759 4494
L 1759 3500
L 2913 3500
L 2913 2700
L 1759 2700
L 1759 1216
Q 1759 972 1856 886
Q 1953 800 2241 800
L 2816 800
L 2816 0
L 1856 0
Q 1194 0 917 276
Q 641 553 641 1216
L 641 2700
L 84 2700
L 84 3500
L 641 3500
L 641 4494
L 1759 4494
z
" transform="scale(0.015625)"/>
      <path id="DejaVuSans-Bold-65" d="M 4031 1759
L 4031 1441
L 1416 1441
Q 1456 1047 1700 850
Q 1944 653 2381 653
Q 2734 653 3104 758
Q 3475 863 3866 1075
L 3866 213
Q 3469 63 3072 -14
Q 2675 -91 2278 -91
Q 1328 -91 801 392
Q 275 875 275 1747
Q 275 2603 792 3093
Q 1309 3584 2216 3584
Q 3041 3584 3536 3087
Q 4031 2591 4031 1759
z
M 2881 2131
Q 2881 2450 2695 2645
Q 2509 2841 2209 2841
Q 1884 2841 1681 2658
Q 1478 2475 1428 2131
L 2881 2131
z
" transform="scale(0.015625)"/>
      <path id="DejaVuSans-Bold-6e" d="M 4056 2131
L 4056 0
L 2931 0
L 2931 347
L 2931 1631
Q 2931 2084 2911 2256
Q 2891 2428 2841 2509
Q 2775 2619 2662 2680
Q 2550 2741 2406 2741
Q 2056 2741 1856 2470
Q 1656 2200 1656 1722
L 1656 0
L 538 0
L 538 3500
L 1656 3500
L 1656 2988
Q 1909 3294 2193 3439
Q 2478 3584 2822 3584
Q 3428 3584 3742 3212
Q 4056 2841 4056 2131
z
" transform="scale(0.015625)"/>
      <path id="DejaVuSans-Bold-73" d="M 3272 3391
L 3272 2541
Q 2913 2691 2578 2766
Q 2244 2841 1947 2841
Q 1628 2841 1473 2761
Q 1319 2681 1319 2516
Q 1319 2381 1436 2309
Q 1553 2238 1856 2203
L 2053 2175
Q 2913 2066 3209 1816
Q 3506 1566 3506 1031
Q 3506 472 3093 190
Q 2681 -91 1863 -91
Q 1516 -91 1145 -36
Q 775 19 384 128
L 384 978
Q 719 816 1070 734
Q 1422 653 1784 653
Q 2113 653 2278 743
Q 2444 834 2444 1013
Q 2444 1163 2330 1236
Q 2216 1309 1875 1350
L 1678 1375
Q 931 1469 631 1722
Q 331 1975 331 2491
Q 331 3047 712 3315
Q 1094 3584 1881 3584
Q 2191 3584 2531 3537
Q 2872 3491 3272 3391
z
" transform="scale(0.015625)"/>
      <path id="DejaVuSans-Bold-69" d="M 538 3500
L 1656 3500
L 1656 0
L 538 0
L 538 3500
z
M 538 4863
L 1656 4863
L 1656 3950
L 538 3950
L 538 4863
z
" transform="scale(0.015625)"/>
      <path id="DejaVuSans-Bold-62" d="M 2400 722
Q 2759 722 2948 984
Q 3138 1247 3138 1747
Q 3138 2247 2948 2509
Q 2759 2772 2400 2772
Q 2041 2772 1848 2508
Q 1656 2244 1656 1747
Q 1656 1250 1848 986
Q 2041 722 2400 722
z
M 1656 2988
Q 1888 3294 2169 3439
Q 2450 3584 2816 3584
Q 3463 3584 3878 3070
Q 4294 2556 4294 1747
Q 4294 938 3878 423
Q 3463 -91 2816 -91
Q 2450 -91 2169 54
Q 1888 200 1656 506
L 1656 0
L 538 0
L 538 4863
L 1656 4863
L 1656 2988
z
" transform="scale(0.015625)"/>
      <path id="DejaVuSans-Bold-6c" d="M 538 4863
L 1656 4863
L 1656 0
L 538 0
L 538 4863
z
" transform="scale(0.015625)"/>
      <path id="DejaVuSans-Bold-50" d="M 588 4666
L 2584 4666
Q 3475 4666 3951 4270
Q 4428 3875 4428 3144
Q 4428 2409 3951 2014
Q 3475 1619 2584 1619
L 1791 1619
L 1791 0
L 588 0
L 588 4666
z
M 1791 3794
L 1791 2491
L 2456 2491
Q 2806 2491 2997 2661
Q 3188 2831 3188 3144
Q 3188 3456 2997 3625
Q 2806 3794 2456 3794
L 1791 3794
z
" transform="scale(0.015625)"/>
      <path id="DejaVuSans-Bold-75" d="M 500 1363
L 500 3500
L 1625 3500
L 1625 3150
Q 1625 2866 1622 2436
Q 1619 2006 1619 1863
Q 1619 1441 1641 1255
Q 1663 1069 1716 984
Q 1784 875 1895 815
Q 2006 756 2150 756
Q 2500 756 2700 1025
Q 2900 1294 2900 1772
L 2900 3500
L 4019 3500
L 4019 0
L 2900 0
L 2900 506
Q 2647 200 2364 54
Q 2081 -91 1741 -91
Q 1134 -91 817 281
Q 500 653 500 1363
z
" transform="scale(0.015625)"/>
      <path id="DejaVuSans-Bold-67" d="M 2919 594
Q 2688 288 2409 144
Q 2131 0 1766 0
Q 1125 0 706 504
Q 288 1009 288 1791
Q 288 2575 706 3076
Q 1125 3578 1766 3578
Q 2131 3578 2409 3434
Q 2688 3291 2919 2981
L 2919 3500
L 4044 3500
L 4044 353
Q 4044 -491 3511 -936
Q 2978 -1381 1966 -1381
Q 1638 -1381 1331 -1331
Q 1025 -1281 716 -1178
L 716 -306
Q 1009 -475 1290 -558
Q 1572 -641 1856 -641
Q 2406 -641 2662 -400
Q 2919 -159 2919 353
L 2919 594
z
M 2181 2772
Q 1834 2772 1640 2515
Q 1447 2259 1447 1791
Q 1447 1309 1634 1061
Q 1822 813 2181 813
Q 2531 813 2725 1069
Q 2919 1325 2919 1791
Q 2919 2259 2725 2515
Q 2531 2772 2181 2772
z
" transform="scale(0.015625)"/>
      <path id="DejaVuSans-Bold-41" d="M 3419 850
L 1538 850
L 1241 0
L 31 0
L 1759 4666
L 3194 4666
L 4922 0
L 3713 0
L 3419 850
z
M 1838 1716
L 3116 1716
L 2478 3572
L 1838 1716
z
" transform="scale(0.015625)"/>
      <path id="DejaVuSans-Bold-63" d="M 3366 3391
L 3366 2478
Q 3138 2634 2908 2709
Q 2678 2784 2431 2784
Q 1963 2784 1702 2511
Q 1441 2238 1441 1747
Q 1441 1256 1702 982
Q 1963 709 2431 709
Q 2694 709 2930 787
Q 3166 866 3366 1019
L 3366 103
Q 3103 6 2833 -42
Q 2563 -91 2291 -91
Q 1344 -91 809 395
Q 275 881 275 1747
Q 275 2613 809 3098
Q 1344 3584 2291 3584
Q 2566 3584 2833 3536
Q 3100 3488 3366 3391
z
" transform="scale(0.015625)"/>
     </defs>
     <use xlink:href="#DejaVuSans-Bold-54"/>
     <use xlink:href="#DejaVuSans-Bold-68" transform="translate(68.212891 0)"/>
     <use xlink:href="#DejaVuSans-Bold-79" transform="translate(139.404297 0)"/>
     <use xlink:href="#DejaVuSans-Bold-72" transform="translate(204.589844 0)"/>
     <use xlink:href="#DejaVuSans-Bold-61" transform="translate(253.90625 0)"/>
     <use xlink:href="#DejaVuSans-Bold-20" transform="translate(321.386719 0)"/>
     <use xlink:href="#DejaVuSans-Bold-45" transform="translate(356.201172 0)"/>
     <use xlink:href="#DejaVuSans-Bold-78" transform="translate(424.511719 0)"/>
     <use xlink:href="#DejaVuSans-Bold-74" transform="translate(489.013672 0)"/>
     <use xlink:href="#DejaVuSans-Bold-65" transform="translate(536.816406 0)"/>
     <use xlink:href="#DejaVuSans-Bold-6e" transform="translate(604.638672 0)"/>
     <use xlink:href="#DejaVuSans-Bold-73" transform="translate(675.830078 0)"/>
     <use xlink:href="#DejaVuSans-Bold-69" transform="translate(735.351562 0)"/>
     <use xlink:href="#DejaVuSans-Bold-62" transform="translate(769.628906 0)"/>
     <use xlink:href="#DejaVuSans-Bold-6c" transform="translate(841.210938 0)"/>
     <use xlink:href="#DejaVuSans-Bold-65" transform="translate(875.488281 0)"/>
     <use xlink:href="#DejaVuSans-Bold-20" transform="translate(943.310547 0)"/>
     <use xlink:href="#DejaVuSans-Bold-50" transform="translate(978.125 0)"/>
     <use xlink:href="#DejaVuSans-Bold-6c" transform="translate(1051.416016 0)"/>
     <use xlink:href="#DejaVuSans-Bold-75" transform="translate(1085.693359 0)"/>
     <use xlink:href="#DejaVuSans-Bold-67" transform="translate(1156.884766 0)"/>
     <use xlink:href="#DejaVuSans-Bold-69" transform="translate(1228.466797 0)"/>
     <use xlink:href="#DejaVuSans-Bold-6e" transform="translate(1262.744141 0)"/>
     <use xlink:href="#DejaVuSans-Bold-20" transform="translate(1333.935547 0)"/>
     <use xlink:href="#DejaVuSans-Bold-41" transform="translate(1368.75 0)"/>
     <use xlink:href="#DejaVuSans-Bold-72" transform="translate(1446.142578 0)"/>
     <use xlink:href="#DejaVuSans-Bold-63" transform="translate(1495.458984 0)"/>
     <use xlink:href="#DejaVuSans-Bold-68" transform="translate(1554.736328 0)"/>
     <use xlink:href="#DejaVuSans-Bold-69" transform="translate(1625.927734 0)"/>
     <use xlink:href="#DejaVuSans-Bold-74" transform="translate(1660.205078 0)"/>
     <use xlink:href="#DejaVuSans-Bold-65" transform="translate(1708.007812 0)"/>
     <use xlink:href="#DejaVuSans-Bold-63" transform="translate(1775.830078 0)"/>
     <use xlink:href="#DejaVuSans-Bold-74" transform="translate(1835.107422 0)"/>
     <use xlink:href="#DejaVuSans-Bold-75" transform="translate(1882.910156 0)"/>
     <use xlink:href="#DejaVuSans-Bold-72" transform="translate(1954.101562 0)"/>
     <use xlink:href="#DejaVuSans-Bold-65" transform="translate(2003.417969 0)"/>
    </g>
   </g>
   <g id="text_2">
    <!-- THYRA -->
    <g style="fill: #1565c0" transform="translate(469.570781 339.311125) scale(0.14 -0.14)">
     <defs>
      <path id="DejaVuSans-Bold-48" d="M 588 4666
L 1791 4666
L 1791 2888
L 3566 2888
L 3566 4666
L 4769 4666
L 4769 0
L 3566 0
L 3566 1978
L 1791 1978
L 1791 0
L 588 0
L 588 4666
z
" transform="scale(0.015625)"/>
      <path id="DejaVuSans-Bold-59" d="M -63 4666
L 1253 4666
L 2316 3003
L 3378 4666
L 4697 4666
L 2919 1966
L 2919 0
L 1716 0
L 1716 1966
L -63 4666
z
" transform="scale(0.015625)"/>
      <path id="DejaVuSans-Bold-52" d="M 2297 2597
Q 2675 2597 2839 2737
Q 3003 2878 3003 3200
Q 3003 3519 2839 3656
Q 2675 3794 2297 3794
L 1791 3794
L 1791 2597
L 2297 2597
z
M 1791 1766
L 1791 0
L 588 0
L 588 4666
L 2425 4666
Q 3347 4666 3776 4356
Q 4206 4047 4206 3378
Q 4206 2916 3982 2619
Q 3759 2322 3309 2181
Q 3556 2125 3751 1926
Q 3947 1728 4147 1325
L 4800 0
L 3519 0
L 2950 1159
Q 2778 1509 2601 1637
Q 2425 1766 2131 1766
L 1791 1766
z
" transform="scale(0.015625)"/>
     </defs>
     <use xlink:href="#DejaVuSans-Bold-54"/>
     <use xlink:href="#DejaVuSans-Bold-48" transform="translate(68.212891 0)"/>
     <use xlink:href="#DejaVuSans-Bold-59" transform="translate(151.904297 0)"/>
     <use xlink:href="#DejaVuSans-Bold-52" transform="translate(224.316406 0)"/>
     <use xlink:href="#DejaVuSans-Bold-41" transform="translate(301.318359 0)"/>
    </g>
   </g>
   <g id="text_3">
    <!-- CORE -->
    <g style="fill: #1565c0" transform="translate(474.819687 381.215125) scale(0.14 -0.14)">
     <defs>
      <path id="DejaVuSans-Bold-43" d="M 4288 256
Q 3956 84 3597 -3
Q 3238 -91 2847 -91
Q 1681 -91 1000 561
Q 319 1213 319 2328
Q 319 3447 1000 4098
Q 1681 4750 2847 4750
Q 3238 4750 3597 4662
Q 3956 4575 4288 4403
L 4288 3438
Q 3953 3666 3628 3772
Q 3303 3878 2944 3878
Q 2300 3878 1931 3465
Q 1563 3053 1563 2328
Q 1563 1606 1931 1193
Q 2300 781 2944 781
Q 3303 781 3628 887
Q 3953 994 4288 1222
L 4288 256
z
" transform="scale(0.015625)"/>
      <path id="DejaVuSans-Bold-4f" d="M 2719 3878
Q 2169 3878 1866 3472
Q 1563 3066 1563 2328
Q 1563 1594 1866 1187
Q 2169 781 2719 781
Q 3272 781 3575 1187
Q 3878 1594 3878 2328
Q 3878 3066 3575 3472
Q 3272 3878 2719 3878
z
M 2719 4750
Q 3844 4750 4481 4106
Q 5119 3463 5119 2328
Q 5119 1197 4481 553
Q 3844 -91 2719 -91
Q 1597 -91 958 553
Q 319 1197 319 2328
Q 319 3463 958 4106
Q 1597 4750 2719 4750
z
" transform="scale(0.015625)"/>
     </defs>
     <use xlink:href="#DejaVuSans-Bold-43"/>
     <use xlink:href="#DejaVuSans-Bold-4f" transform="translate(73.388672 0)"/>
     <use xlink:href="#DejaVuSans-Bold-52" transform="translate(158.398438 0)"/>
     <use xlink:href="#DejaVuSans-Bold-45" transform="translate(235.400391 0)"/>
    </g>
   </g>
   <g id="text_4">
    <!-- BaseMSI -->
    <g transform="translate(559.603656 215.300935) scale(0.07 -0.07)">
     <defs>
      <path id="DejaVuSans-Bold-42" d="M 2456 2859
Q 2741 2859 2887 2984
Q 3034 3109 3034 3353
Q 3034 3594 2887 3720
Q 2741 3847 2456 3847
L 1791 3847
L 1791 2859
L 2456 2859
z
M 2497 819
Q 2859 819 3042 972
Q 3225 1125 3225 1434
Q 3225 1738 3044 1889
Q 2863 2041 2497 2041
L 1791 2041
L 1791 819
L 2497 819
z
M 3616 2497
Q 4003 2384 4215 2081
Q 4428 1778 4428 1338
Q 4428 663 3972 331
Q 3516 0 2584 0
L 588 0
L 588 4666
L 2394 4666
Q 3366 4666 3802 4372
Q 4238 4078 4238 3431
Q 4238 3091 4078 2852
Q 3919 2613 3616 2497
z
" transform="scale(0.015625)"/>
      <path id="DejaVuSans-Bold-4d" d="M 588 4666
L 2119 4666
L 3181 2169
L 4250 4666
L 5778 4666
L 5778 0
L 4641 0
L 4641 3413
L 3566 897
L 2803 897
L 1728 3413
L 1728 0
L 588 0
L 588 4666
z
" transform="scale(0.015625)"/>
      <path id="DejaVuSans-Bold-53" d="M 3834 4519
L 3834 3531
Q 3450 3703 3084 3790
Q 2719 3878 2394 3878
Q 1963 3878 1756 3759
Q 1550 3641 1550 3391
Q 1550 3203 1689 3098
Q 1828 2994 2194 2919
L 2706 2816
Q 3484 2659 3812 2340
Q 4141 2022 4141 1434
Q 4141 663 3683 286
Q 3225 -91 2284 -91
Q 1841 -91 1394 -6
Q 947 78 500 244
L 500 1259
Q 947 1022 1364 901
Q 1781 781 2169 781
Q 2563 781 2772 912
Q 2981 1044 2981 1288
Q 2981 1506 2839 1625
Q 2697 1744 2272 1838
L 1806 1941
Q 1106 2091 782 2419
Q 459 2747 459 3303
Q 459 4000 909 4375
Q 1359 4750 2203 4750
Q 2588 4750 2994 4692
Q 3400 4634 3834 4519
z
" transform="scale(0.015625)"/>
      <path id="DejaVuSans-Bold-49" d="M 588 4666
L 1791 4666
L 1791 0
L 588 0
L 588 4666
z
" transform="scale(0.015625)"/>
     </defs>
     <use xlink:href="#DejaVuSans-Bold-42"/>
     <use xlink:href="#DejaVuSans-Bold-61" transform="translate(76.220703 0)"/>
     <use xlink:href="#DejaVuSans-Bold-73" transform="translate(143.701172 0)"/>
     <use xlink:href="#DejaVuSans-Bold-65" transform="translate(203.222656 0)"/>
     <use xlink:href="#DejaVuSans-Bold-4d" transform="translate(271.044922 0)"/>
     <use xlink:href="#DejaVuSans-Bold-53" transform="translate(370.556641 0)"/>
     <use xlink:href="#DejaVuSans-Bold-49" transform="translate(442.578125 0)"/>
    </g>
    <!-- Reader -->
    <g transform="translate(562.359906 223.139404) scale(0.07 -0.07)">
     <defs>
      <path id="DejaVuSans-Bold-64" d="M 2919 2988
L 2919 4863
L 4044 4863
L 4044 0
L 2919 0
L 2919 506
Q 2688 197 2409 53
Q 2131 -91 1766 -91
Q 1119 -91 703 423
Q 288 938 288 1747
Q 288 2556 703 3070
Q 1119 3584 1766 3584
Q 2128 3584 2408 3439
Q 2688 3294 2919 2988
z
M 2181 722
Q 2541 722 2730 984
Q 2919 1247 2919 1747
Q 2919 2247 2730 2509
Q 2541 2772 2181 2772
Q 1825 2772 1636 2509
Q 1447 2247 1447 1747
Q 1447 1247 1636 984
Q 1825 722 2181 722
z
" transform="scale(0.015625)"/>
     </defs>
     <use xlink:href="#DejaVuSans-Bold-52"/>
     <use xlink:href="#DejaVuSans-Bold-65" transform="translate(77.001953 0)"/>
     <use xlink:href="#DejaVuSans-Bold-61" transform="translate(144.824219 0)"/>
     <use xlink:href="#DejaVuSans-Bold-64" transform="translate(212.304688 0)"/>
     <use xlink:href="#DejaVuSans-Bold-65" transform="translate(283.886719 0)"/>
     <use xlink:href="#DejaVuSans-Bold-72" transform="translate(351.708984 0)"/>
    </g>
   </g>
   <g id="text_5">
    <!-- BaseMSI -->
    <g transform="translate(318.655656 354.412328) scale(0.07 -0.07)">
     <use xlink:href="#DejaVuSans-Bold-42"/>
     <use xlink:href="#DejaVuSans-Bold-61" transform="translate(76.220703 0)"/>
     <use xlink:href="#DejaVuSans-Bold-73" transform="translate(143.701172 0)"/>
     <use xlink:href="#DejaVuSans-Bold-65" transform="translate(203.222656 0)"/>
     <use xlink:href="#DejaVuSans-Bold-4d" transform="translate(271.044922 0)"/>
     <use xlink:href="#DejaVuSans-Bold-53" transform="translate(370.556641 0)"/>
     <use xlink:href="#DejaVuSans-Bold-49" transform="translate(442.578125 0)"/>
    </g>
    <!-- Converter -->
    <g transform="translate(315.828859 362.250797) scale(0.07 -0.07)">
     <defs>
      <path id="DejaVuSans-Bold-6f" d="M 2203 2784
Q 1831 2784 1636 2517
Q 1441 2250 1441 1747
Q 1441 1244 1636 976
Q 1831 709 2203 709
Q 2569 709 2762 976
Q 2956 1244 2956 1747
Q 2956 2250 2762 2517
Q 2569 2784 2203 2784
z
M 2203 3584
Q 3106 3584 3614 3096
Q 4122 2609 4122 1747
Q 4122 884 3614 396
Q 3106 -91 2203 -91
Q 1297 -91 786 396
Q 275 884 275 1747
Q 275 2609 786 3096
Q 1297 3584 2203 3584
z
" transform="scale(0.015625)"/>
      <path id="DejaVuSans-Bold-76" d="M 97 3500
L 1216 3500
L 2088 1081
L 2956 3500
L 4078 3500
L 2700 0
L 1472 0
L 97 3500
z
" transform="scale(0.015625)"/>
     </defs>
     <use xlink:href="#DejaVuSans-Bold-43"/>
     <use xlink:href="#DejaVuSans-Bold-6f" transform="translate(73.388672 0)"/>
     <use xlink:href="#DejaVuSans-Bold-6e" transform="translate(142.089844 0)"/>
     <use xlink:href="#DejaVuSans-Bold-76" transform="translate(213.28125 0)"/>
     <use xlink:href="#DejaVuSans-Bold-65" transform="translate(278.466797 0)"/>
     <use xlink:href="#DejaVuSans-Bold-72" transform="translate(346.289062 0)"/>
     <use xlink:href="#DejaVuSans-Bold-74" transform="translate(395.605469 0)"/>
     <use xlink:href="#DejaVuSans-Bold-65" transform="translate(443.408203 0)"/>
     <use xlink:href="#DejaVuSans-Bold-72" transform="translate(511.230469 0)"/>
    </g>
   </g>
   <g id="text_6">
    <!-- Metadata -->
    <g transform="translate(557.602094 493.523721) scale(0.07 -0.07)">
     <use xlink:href="#DejaVuSans-Bold-4d"/>
     <use xlink:href="#DejaVuSans-Bold-65" transform="translate(99.511719 0)"/>
     <use xlink:href="#DejaVuSans-Bold-74" transform="translate(167.333984 0)"/>
     <use xlink:href="#DejaVuSans-Bold-61" transform="translate(215.136719 0)"/>
     <use xlink:href="#DejaVuSans-Bold-64" transform="translate(282.617188 0)"/>
     <use xlink:href="#DejaVuSans-Bold-61" transform="translate(354.199219 0)"/>
     <use xlink:href="#DejaVuSans-Bold-74" transform="translate(421.679688 0)"/>
     <use xlink:href="#DejaVuSans-Bold-61" transform="translate(469.482422 0)"/>
    </g>
    <!-- Extractor -->
    <g transform="translate(558.1085 501.36219) scale(0.07 -0.07)">
     <use xlink:href="#DejaVuSans-Bold-45"/>
     <use xlink:href="#DejaVuSans-Bold-78" transform="translate(68.310547 0)"/>
     <use xlink:href="#DejaVuSans-Bold-74" transform="translate(132.8125 0)"/>
     <use xlink:href="#DejaVuSans-Bold-72" transform="translate(180.615234 0)"/>
     <use xlink:href="#DejaVuSans-Bold-61" transform="translate(229.931641 0)"/>
     <use xlink:href="#DejaVuSans-Bold-63" transform="translate(297.412109 0)"/>
     <use xlink:href="#DejaVuSans-Bold-74" transform="translate(356.689453 0)"/>
     <use xlink:href="#DejaVuSans-Bold-6f" transform="translate(404.492188 0)"/>
     <use xlink:href="#DejaVuSans-Bold-72" transform="translate(473.193359 0)"/>
    </g>
   </g>
   <g id="text_7">
    <!-- READERS -->
    <g style="fill: #2e7d32" transform="translate(103.267656 272.592) scale(0.1 -0.1)">
     <defs>
      <path id="DejaVuSans-Bold-44" d="M 1791 3756
L 1791 909
L 2222 909
Q 2959 909 3348 1275
Q 3738 1641 3738 2338
Q 3738 3031 3350 3393
Q 2963 3756 2222 3756
L 1791 3756
z
M 588 4666
L 1856 4666
Q 2919 4666 3439 4514
Q 3959 4363 4331 4000
Q 4659 3684 4818 3271
Q 4978 2859 4978 2338
Q 4978 1809 4818 1395
Q 4659 981 4331 666
Q 3956 303 3431 151
Q 2906 0 1856 0
L 588 0
L 588 4666
z
" transform="scale(0.015625)"/>
     </defs>
     <use xlink:href="#DejaVuSans-Bold-52"/>
     <use xlink:href="#DejaVuSans-Bold-45" transform="translate(77.001953 0)"/>
     <use xlink:href="#DejaVuSans-Bold-41" transform="translate(145.3125 0)"/>
     <use xlink:href="#DejaVuSans-Bold-44" transform="translate(222.705078 0)"/>
     <use xlink:href="#DejaVuSans-Bold-45" transform="translate(305.712891 0)"/>
     <use xlink:href="#DejaVuSans-Bold-52" transform="translate(374.023438 0)"/>
     <use xlink:href="#DejaVuSans-Bold-53" transform="translate(451.025391 0)"/>
    </g>
   </g>
   <g id="text_8">
    <!-- ImzMLReader -->
    <g transform="translate(105.784062 305.951562) scale(0.07 -0.07)">
     <defs>
      <path id="DejaVuSans-49" d="M 628 4666
L 1259 4666
L 1259 0
L 628 0
L 628 4666
z
" transform="scale(0.015625)"/>
      <path id="DejaVuSans-6d" d="M 3328 2828
Q 3544 3216 3844 3400
Q 4144 3584 4550 3584
Q 5097 3584 5394 3201
Q 5691 2819 5691 2113
L 5691 0
L 5113 0
L 5113 2094
Q 5113 2597 4934 2840
Q 4756 3084 4391 3084
Q 3944 3084 3684 2787
Q 3425 2491 3425 1978
L 3425 0
L 2847 0
L 2847 2094
Q 2847 2600 2669 2842
Q 2491 3084 2119 3084
Q 1678 3084 1418 2786
Q 1159 2488 1159 1978
L 1159 0
L 581 0
L 581 3500
L 1159 3500
L 1159 2956
Q 1356 3278 1631 3431
Q 1906 3584 2284 3584
Q 2666 3584 2933 3390
Q 3200 3197 3328 2828
z
" transform="scale(0.015625)"/>
      <path id="DejaVuSans-7a" d="M 353 3500
L 3084 3500
L 3084 2975
L 922 459
L 3084 459
L 3084 0
L 275 0
L 275 525
L 2438 3041
L 353 3041
L 353 3500
z
" transform="scale(0.015625)"/>
      <path id="DejaVuSans-4d" d="M 628 4666
L 1569 4666
L 2759 1491
L 3956 4666
L 4897 4666
L 4897 0
L 4281 0
L 4281 4097
L 3078 897
L 2444 897
L 1241 4097
L 1241 0
L 628 0
L 628 4666
z
" transform="scale(0.015625)"/>
      <path id="DejaVuSans-4c" d="M 628 4666
L 1259 4666
L 1259 531
L 3531 531
L 3531 0
L 628 0
L 628 4666
z
" transform="scale(0.015625)"/>
      <path id="DejaVuSans-52" d="M 2841 2188
Q 3044 2119 3236 1894
Q 3428 1669 3622 1275
L 4263 0
L 3584 0
L 2988 1197
Q 2756 1666 2539 1819
Q 2322 1972 1947 1972
L 1259 1972
L 1259 0
L 628 0
L 628 4666
L 2053 4666
Q 2853 4666 3247 4331
Q 3641 3997 3641 3322
Q 3641 2881 3436 2590
Q 3231 2300 2841 2188
z
M 1259 4147
L 1259 2491
L 2053 2491
Q 2509 2491 2742 2702
Q 2975 2913 2975 3322
Q 2975 3731 2742 3939
Q 2509 4147 2053 4147
L 1259 4147
z
" transform="scale(0.015625)"/>
      <path id="DejaVuSans-65" d="M 3597 1894
L 3597 1613
L 953 1613
Q 991 1019 1311 708
Q 1631 397 2203 397
Q 2534 397 2845 478
Q 3156 559 3463 722
L 3463 178
Q 3153 47 2828 -22
Q 2503 -91 2169 -91
Q 1331 -91 842 396
Q 353 884 353 1716
Q 353 2575 817 3079
Q 1281 3584 2069 3584
Q 2775 3584 3186 3129
Q 3597 2675 3597 1894
z
M 3022 2063
Q 3016 2534 2758 2815
Q 2500 3097 2075 3097
Q 1594 3097 1305 2825
Q 1016 2553 972 2059
L 3022 2063
z
" transform="scale(0.015625)"/>
      <path id="DejaVuSans-61" d="M 2194 1759
Q 1497 1759 1228 1600
Q 959 1441 959 1056
Q 959 750 1161 570
Q 1363 391 1709 391
Q 2188 391 2477 730
Q 2766 1069 2766 1631
L 2766 1759
L 2194 1759
z
M 3341 1997
L 3341 0
L 2766 0
L 2766 531
Q 2569 213 2275 61
Q 1981 -91 1556 -91
Q 1019 -91 701 211
Q 384 513 384 1019
Q 384 1609 779 1909
Q 1175 2209 1959 2209
L 2766 2209
L 2766 2266
Q 2766 2663 2505 2880
Q 2244 3097 1772 3097
Q 1472 3097 1187 3025
Q 903 2953 641 2809
L 641 3341
Q 956 3463 1253 3523
Q 1550 3584 1831 3584
Q 2591 3584 2966 3190
Q 3341 2797 3341 1997
z
" transform="scale(0.015625)"/>
      <path id="DejaVuSans-64" d="M 2906 2969
L 2906 4863
L 3481 4863
L 3481 0
L 2906 0
L 2906 525
Q 2725 213 2448 61
Q 2172 -91 1784 -91
Q 1150 -91 751 415
Q 353 922 353 1747
Q 353 2572 751 3078
Q 1150 3584 1784 3584
Q 2172 3584 2448 3432
Q 2725 3281 2906 2969
z
M 947 1747
Q 947 1113 1208 752
Q 1469 391 1925 391
Q 2381 391 2643 752
Q 2906 1113 2906 1747
Q 2906 2381 2643 2742
Q 2381 3103 1925 3103
Q 1469 3103 1208 2742
Q 947 2381 947 1747
z
" transform="scale(0.015625)"/>
      <path id="DejaVuSans-72" d="M 2631 2963
Q 2534 3019 2420 3045
Q 2306 3072 2169 3072
Q 1681 3072 1420 2755
Q 1159 2438 1159 1844
L 1159 0
L 581 0
L 581 3500
L 1159 3500
L 1159 2956
Q 1341 3275 1631 3429
Q 1922 3584 2338 3584
Q 2397 3584 2469 3576
Q 2541 3569 2628 3553
L 2631 2963
z
" transform="scale(0.015625)"/>
     </defs>
     <use xlink:href="#DejaVuSans-49"/>
     <use xlink:href="#DejaVuSans-6d" transform="translate(29.492188 0)"/>
     <use xlink:href="#DejaVuSans-7a" transform="translate(126.904297 0)"/>
     <use xlink:href="#DejaVuSans-4d" transform="translate(179.394531 0)"/>
     <use xlink:href="#DejaVuSans-4c" transform="translate(265.673828 0)"/>
     <use xlink:href="#DejaVuSans-52" transform="translate(321.386719 0)"/>
     <use xlink:href="#DejaVuSans-65" transform="translate(386.369141 0)"/>
     <use xlink:href="#DejaVuSans-61" transform="translate(447.892578 0)"/>
     <use xlink:href="#DejaVuSans-64" transform="translate(509.171875 0)"/>
     <use xlink:href="#DejaVuSans-65" transform="translate(572.648438 0)"/>
     <use xlink:href="#DejaVuSans-72" transform="translate(634.171875 0)"/>
    </g>
   </g>
   <g id="text_9">
    <!-- BrukerReader -->
    <g transform="translate(105.482187 347.855562) scale(0.07 -0.07)">
     <defs>
      <path id="DejaVuSans-42" d="M 1259 2228
L 1259 519
L 2272 519
Q 2781 519 3026 730
Q 3272 941 3272 1375
Q 3272 1813 3026 2020
Q 2781 2228 2272 2228
L 1259 2228
z
M 1259 4147
L 1259 2741
L 2194 2741
Q 2656 2741 2882 2914
Q 3109 3088 3109 3444
Q 3109 3797 2882 3972
Q 2656 4147 2194 4147
L 1259 4147
z
M 628 4666
L 2241 4666
Q 2963 4666 3353 4366
Q 3744 4066 3744 3513
Q 3744 3084 3544 2831
Q 3344 2578 2956 2516
Q 3422 2416 3680 2098
Q 3938 1781 3938 1306
Q 3938 681 3513 340
Q 3088 0 2303 0
L 628 0
L 628 4666
z
" transform="scale(0.015625)"/>
      <path id="DejaVuSans-75" d="M 544 1381
L 544 3500
L 1119 3500
L 1119 1403
Q 1119 906 1312 657
Q 1506 409 1894 409
Q 2359 409 2629 706
Q 2900 1003 2900 1516
L 2900 3500
L 3475 3500
L 3475 0
L 2900 0
L 2900 538
Q 2691 219 2414 64
Q 2138 -91 1772 -91
Q 1169 -91 856 284
Q 544 659 544 1381
z
M 1991 3584
L 1991 3584
z
" transform="scale(0.015625)"/>
      <path id="DejaVuSans-6b" d="M 581 4863
L 1159 4863
L 1159 1991
L 2875 3500
L 3609 3500
L 1753 1863
L 3688 0
L 2938 0
L 1159 1709
L 1159 0
L 581 0
L 581 4863
z
" transform="scale(0.015625)"/>
     </defs>
     <use xlink:href="#DejaVuSans-42"/>
     <use xlink:href="#DejaVuSans-72" transform="translate(68.603516 0)"/>
     <use xlink:href="#DejaVuSans-75" transform="translate(109.716797 0)"/>
     <use xlink:href="#DejaVuSans-6b" transform="translate(173.095703 0)"/>
     <use xlink:href="#DejaVuSans-65" transform="translate(227.380859 0)"/>
     <use xlink:href="#DejaVuSans-72" transform="translate(288.904297 0)"/>
     <use xlink:href="#DejaVuSans-52" transform="translate(330.017578 0)"/>
     <use xlink:href="#DejaVuSans-65" transform="translate(395 0)"/>
     <use xlink:href="#DejaVuSans-61" transform="translate(456.523438 0)"/>
     <use xlink:href="#DejaVuSans-64" transform="translate(517.802734 0)"/>
     <use xlink:href="#DejaVuSans-65" transform="translate(581.279297 0)"/>
     <use xlink:href="#DejaVuSans-72" transform="translate(642.802734 0)"/>
    </g>
   </g>
   <g id="text_10">
    <!-- ThermoReader -->
    <g transform="translate(103.594922 389.759562) scale(0.07 -0.07)">
     <defs>
      <path id="DejaVuSans-54" d="M -19 4666
L 3928 4666
L 3928 4134
L 2272 4134
L 2272 0
L 1638 0
L 1638 4134
L -19 4134
L -19 4666
z
" transform="scale(0.015625)"/>
      <path id="DejaVuSans-68" d="M 3513 2113
L 3513 0
L 2938 0
L 2938 2094
Q 2938 2591 2744 2837
Q 2550 3084 2163 3084
Q 1697 3084 1428 2787
Q 1159 2491 1159 1978
L 1159 0
L 581 0
L 581 4863
L 1159 4863
L 1159 2956
Q 1366 3272 1645 3428
Q 1925 3584 2291 3584
Q 2894 3584 3203 3211
Q 3513 2838 3513 2113
z
" transform="scale(0.015625)"/>
      <path id="DejaVuSans-6f" d="M 1959 3097
Q 1497 3097 1228 2736
Q 959 2375 959 1747
Q 959 1119 1226 758
Q 1494 397 1959 397
Q 2419 397 2687 759
Q 2956 1122 2956 1747
Q 2956 2369 2687 2733
Q 2419 3097 1959 3097
z
M 1959 3584
Q 2709 3584 3137 3096
Q 3566 2609 3566 1747
Q 3566 888 3137 398
Q 2709 -91 1959 -91
Q 1206 -91 779 398
Q 353 888 353 1747
Q 353 2609 779 3096
Q 1206 3584 1959 3584
z
" transform="scale(0.015625)"/>
     </defs>
     <use xlink:href="#DejaVuSans-54"/>
     <use xlink:href="#DejaVuSans-68" transform="translate(61.083984 0)"/>
     <use xlink:href="#DejaVuSans-65" transform="translate(124.462891 0)"/>
     <use xlink:href="#DejaVuSans-72" transform="translate(185.986328 0)"/>
     <use xlink:href="#DejaVuSans-6d" transform="translate(225.349609 0)"/>
     <use xlink:href="#DejaVuSans-6f" transform="translate(322.761719 0)"/>
     <use xlink:href="#DejaVuSans-52" transform="translate(383.943359 0)"/>
     <use xlink:href="#DejaVuSans-65" transform="translate(448.925781 0)"/>
     <use xlink:href="#DejaVuSans-61" transform="translate(510.449219 0)"/>
     <use xlink:href="#DejaVuSans-64" transform="translate(571.728516 0)"/>
     <use xlink:href="#DejaVuSans-65" transform="translate(635.205078 0)"/>
     <use xlink:href="#DejaVuSans-72" transform="translate(696.728516 0)"/>
    </g>
   </g>
   <g id="text_11">
    <!-- WatersReader -->
    <g transform="translate(104.862578 431.663562) scale(0.07 -0.07)">
     <defs>
      <path id="DejaVuSans-57" d="M 213 4666
L 850 4666
L 1831 722
L 2809 4666
L 3519 4666
L 4500 722
L 5478 4666
L 6119 4666
L 4947 0
L 4153 0
L 3169 4050
L 2175 0
L 1381 0
L 213 4666
z
" transform="scale(0.015625)"/>
      <path id="DejaVuSans-74" d="M 1172 4494
L 1172 3500
L 2356 3500
L 2356 3053
L 1172 3053
L 1172 1153
Q 1172 725 1289 603
Q 1406 481 1766 481
L 2356 481
L 2356 0
L 1766 0
Q 1100 0 847 248
Q 594 497 594 1153
L 594 3053
L 172 3053
L 172 3500
L 594 3500
L 594 4494
L 1172 4494
z
" transform="scale(0.015625)"/>
      <path id="DejaVuSans-73" d="M 2834 3397
L 2834 2853
Q 2591 2978 2328 3040
Q 2066 3103 1784 3103
Q 1356 3103 1142 2972
Q 928 2841 928 2578
Q 928 2378 1081 2264
Q 1234 2150 1697 2047
L 1894 2003
Q 2506 1872 2764 1633
Q 3022 1394 3022 966
Q 3022 478 2636 193
Q 2250 -91 1575 -91
Q 1294 -91 989 -36
Q 684 19 347 128
L 347 722
Q 666 556 975 473
Q 1284 391 1588 391
Q 1994 391 2212 530
Q 2431 669 2431 922
Q 2431 1156 2273 1281
Q 2116 1406 1581 1522
L 1381 1569
Q 847 1681 609 1914
Q 372 2147 372 2553
Q 372 3047 722 3315
Q 1072 3584 1716 3584
Q 2034 3584 2315 3537
Q 2597 3491 2834 3397
z
" transform="scale(0.015625)"/>
     </defs>
     <use xlink:href="#DejaVuSans-57"/>
     <use xlink:href="#DejaVuSans-61" transform="translate(92.501953 0)"/>
     <use xlink:href="#DejaVuSans-74" transform="translate(153.78125 0)"/>
     <use xlink:href="#DejaVuSans-65" transform="translate(192.990234 0)"/>
     <use xlink:href="#DejaVuSans-72" transform="translate(254.513672 0)"/>
     <use xlink:href="#DejaVuSans-73" transform="translate(295.626953 0)"/>
     <use xlink:href="#DejaVuSans-52" transform="translate(347.726562 0)"/>
     <use xlink:href="#DejaVuSans-65" transform="translate(412.708984 0)"/>
     <use xlink:href="#DejaVuSans-61" transform="translate(474.232422 0)"/>
     <use xlink:href="#DejaVuSans-64" transform="translate(535.511719 0)"/>
     <use xlink:href="#DejaVuSans-65" transform="translate(598.988281 0)"/>
     <use xlink:href="#DejaVuSans-72" transform="translate(660.511719 0)"/>
    </g>
   </g>
   <g id="text_12">
    <!-- CONVERTERS -->
    <g style="fill: #ef6c00" transform="translate(825.447812 272.592) scale(0.1 -0.1)">
     <defs>
      <path id="DejaVuSans-Bold-4e" d="M 588 4666
L 1931 4666
L 3628 1466
L 3628 4666
L 4769 4666
L 4769 0
L 3425 0
L 1728 3200
L 1728 0
L 588 0
L 588 4666
z
" transform="scale(0.015625)"/>
      <path id="DejaVuSans-Bold-56" d="M 31 4666
L 1241 4666
L 2478 1222
L 3713 4666
L 4922 4666
L 3194 0
L 1759 0
L 31 4666
z
" transform="scale(0.015625)"/>
     </defs>
     <use xlink:href="#DejaVuSans-Bold-43"/>
     <use xlink:href="#DejaVuSans-Bold-4f" transform="translate(73.388672 0)"/>
     <use xlink:href="#DejaVuSans-Bold-4e" transform="translate(158.398438 0)"/>
     <use xlink:href="#DejaVuSans-Bold-56" transform="translate(242.089844 0)"/>
     <use xlink:href="#DejaVuSans-Bold-45" transform="translate(319.482422 0)"/>
     <use xlink:href="#DejaVuSans-Bold-52" transform="translate(387.792969 0)"/>
     <use xlink:href="#DejaVuSans-Bold-54" transform="translate(460.294922 0)"/>
     <use xlink:href="#DejaVuSans-Bold-45" transform="translate(528.507812 0)"/>
     <use xlink:href="#DejaVuSans-Bold-52" transform="translate(596.818359 0)"/>
     <use xlink:href="#DejaVuSans-Bold-53" transform="translate(673.820312 0)"/>
    </g>
   </g>
   <g id="text_13">
    <!-- SpatialData2D -->
    <g transform="translate(837.410937 305.951562) scale(0.07 -0.07)">
     <defs>
      <path id="DejaVuSans-53" d="M 3425 4513
L 3425 3897
Q 3066 4069 2747 4153
Q 2428 4238 2131 4238
Q 1616 4238 1336 4038
Q 1056 3838 1056 3469
Q 1056 3159 1242 3001
Q 1428 2844 1947 2747
L 2328 2669
Q 3034 2534 3370 2195
Q 3706 1856 3706 1288
Q 3706 609 3251 259
Q 2797 -91 1919 -91
Q 1588 -91 1214 -16
Q 841 59 441 206
L 441 856
Q 825 641 1194 531
Q 1563 422 1919 422
Q 2459 422 2753 634
Q 3047 847 3047 1241
Q 3047 1584 2836 1778
Q 2625 1972 2144 2069
L 1759 2144
Q 1053 2284 737 2584
Q 422 2884 422 3419
Q 422 4038 858 4394
Q 1294 4750 2059 4750
Q 2388 4750 2728 4690
Q 3069 4631 3425 4513
z
" transform="scale(0.015625)"/>
      <path id="DejaVuSans-70" d="M 1159 525
L 1159 -1331
L 581 -1331
L 581 3500
L 1159 3500
L 1159 2969
Q 1341 3281 1617 3432
Q 1894 3584 2278 3584
Q 2916 3584 3314 3078
Q 3713 2572 3713 1747
Q 3713 922 3314 415
Q 2916 -91 2278 -91
Q 1894 -91 1617 61
Q 1341 213 1159 525
z
M 3116 1747
Q 3116 2381 2855 2742
Q 2594 3103 2138 3103
Q 1681 3103 1420 2742
Q 1159 2381 1159 1747
Q 1159 1113 1420 752
Q 1681 391 2138 391
Q 2594 391 2855 752
Q 3116 1113 3116 1747
z
" transform="scale(0.015625)"/>
      <path id="DejaVuSans-69" d="M 603 3500
L 1178 3500
L 1178 0
L 603 0
L 603 3500
z
M 603 4863
L 1178 4863
L 1178 4134
L 603 4134
L 603 4863
z
" transform="scale(0.015625)"/>
      <path id="DejaVuSans-6c" d="M 603 4863
L 1178 4863
L 1178 0
L 603 0
L 603 4863
z
" transform="scale(0.015625)"/>
      <path id="DejaVuSans-44" d="M 1259 4147
L 1259 519
L 2022 519
Q 2988 519 3436 956
Q 3884 1394 3884 2338
Q 3884 3275 3436 3711
Q 2988 4147 2022 4147
L 1259 4147
z
M 628 4666
L 1925 4666
Q 3281 4666 3915 4102
Q 4550 3538 4550 2338
Q 4550 1131 3912 565
Q 3275 0 1925 0
L 628 0
L 628 4666
z
" transform="scale(0.015625)"/>
      <path id="DejaVuSans-32" d="M 1228 531
L 3431 531
L 3431 0
L 469 0
L 469 531
Q 828 903 1448 1529
Q 2069 2156 2228 2338
Q 2531 2678 2651 2914
Q 2772 3150 2772 3378
Q 2772 3750 2511 3984
Q 2250 4219 1831 4219
Q 1534 4219 1204 4116
Q 875 4013 500 3803
L 500 4441
Q 881 4594 1212 4672
Q 1544 4750 1819 4750
Q 2544 4750 2975 4387
Q 3406 4025 3406 3419
Q 3406 3131 3298 2873
Q 3191 2616 2906 2266
Q 2828 2175 2409 1742
Q 1991 1309 1228 531
z
" transform="scale(0.015625)"/>
     </defs>
     <use xlink:href="#DejaVuSans-53"/>
     <use xlink:href="#DejaVuSans-70" transform="translate(63.476562 0)"/>
     <use xlink:href="#DejaVuSans-61" transform="translate(126.953125 0)"/>
     <use xlink:href="#DejaVuSans-74" transform="translate(188.232422 0)"/>
     <use xlink:href="#DejaVuSans-69" transform="translate(227.441406 0)"/>
     <use xlink:href="#DejaVuSans-61" transform="translate(255.224609 0)"/>
     <use xlink:href="#DejaVuSans-6c" transform="translate(316.503906 0)"/>
     <use xlink:href="#DejaVuSans-44" transform="translate(344.287109 0)"/>
     <use xlink:href="#DejaVuSans-61" transform="translate(421.289062 0)"/>
     <use xlink:href="#DejaVuSans-74" transform="translate(482.568359 0)"/>
     <use xlink:href="#DejaVuSans-61" transform="translate(521.777344 0)"/>
     <use xlink:href="#DejaVuSans-32" transform="translate(583.056641 0)"/>
     <use xlink:href="#DejaVuSans-44" transform="translate(646.679688 0)"/>
    </g>
   </g>
   <g id="text_14">
    <!-- SpatialData3D -->
    <g transform="translate(837.410937 347.855562) scale(0.07 -0.07)">
     <defs>
      <path id="DejaVuSans-33" d="M 2597 2516
Q 3050 2419 3304 2112
Q 3559 1806 3559 1356
Q 3559 666 3084 287
Q 2609 -91 1734 -91
Q 1441 -91 1130 -33
Q 819 25 488 141
L 488 750
Q 750 597 1062 519
Q 1375 441 1716 441
Q 2309 441 2620 675
Q 2931 909 2931 1356
Q 2931 1769 2642 2001
Q 2353 2234 1838 2234
L 1294 2234
L 1294 2753
L 1863 2753
Q 2328 2753 2575 2939
Q 2822 3125 2822 3475
Q 2822 3834 2567 4026
Q 2313 4219 1838 4219
Q 1578 4219 1281 4162
Q 984 4106 628 3988
L 628 4550
Q 988 4650 1302 4700
Q 1616 4750 1894 4750
Q 2613 4750 3031 4423
Q 3450 4097 3450 3541
Q 3450 3153 3228 2886
Q 3006 2619 2597 2516
z
" transform="scale(0.015625)"/>
     </defs>
     <use xlink:href="#DejaVuSans-53"/>
     <use xlink:href="#DejaVuSans-70" transform="translate(63.476562 0)"/>
     <use xlink:href="#DejaVuSans-61" transform="translate(126.953125 0)"/>
     <use xlink:href="#DejaVuSans-74" transform="translate(188.232422 0)"/>
     <use xlink:href="#DejaVuSans-69" transform="translate(227.441406 0)"/>
     <use xlink:href="#DejaVuSans-61" transform="translate(255.224609 0)"/>
     <use xlink:href="#DejaVuSans-6c" transform="translate(316.503906 0)"/>
     <use xlink:href="#DejaVuSans-44" transform="translate(344.287109 0)"/>
     <use xlink:href="#DejaVuSans-61" transform="translate(421.289062 0)"/>
     <use xlink:href="#DejaVuSans-74" transform="translate(482.568359 0)"/>
     <use xlink:href="#DejaVuSans-61" transform="translate(521.777344 0)"/>
     <use xlink:href="#DejaVuSans-33" transform="translate(583.056641 0)"/>
     <use xlink:href="#DejaVuSans-44" transform="translate(646.679688 0)"/>
    </g>
   </g>
   <g id="text_15">
    <!-- AnnData-only -->
    <g transform="translate(838.820781 389.759562) scale(0.07 -0.07)">
     <defs>
      <path id="DejaVuSans-41" d="M 2188 4044
L 1331 1722
L 3047 1722
L 2188 4044
z
M 1831 4666
L 2547 4666
L 4325 0
L 3669 0
L 3244 1197
L 1141 1197
L 716 0
L 50 0
L 1831 4666
z
" transform="scale(0.015625)"/>
      <path id="DejaVuSans-6e" d="M 3513 2113
L 3513 0
L 2938 0
L 2938 2094
Q 2938 2591 2744 2837
Q 2550 3084 2163 3084
Q 1697 3084 1428 2787
Q 1159 2491 1159 1978
L 1159 0
L 581 0
L 581 3500
L 1159 3500
L 1159 2956
Q 1366 3272 1645 3428
Q 1925 3584 2291 3584
Q 2894 3584 3203 3211
Q 3513 2838 3513 2113
z
" transform="scale(0.015625)"/>
      <path id="DejaVuSans-2d" d="M 313 2009
L 1997 2009
L 1997 1497
L 313 1497
L 313 2009
z
" transform="scale(0.015625)"/>
      <path id="DejaVuSans-79" d="M 2059 -325
Q 1816 -950 1584 -1140
Q 1353 -1331 966 -1331
L 506 -1331
L 506 -850
L 844 -850
Q 1081 -850 1212 -737
Q 1344 -625 1503 -206
L 1606 56
L 191 3500
L 800 3500
L 1894 763
L 2988 3500
L 3597 3500
L 2059 -325
z
" transform="scale(0.015625)"/>
     </defs>
     <use xlink:href="#DejaVuSans-41"/>
     <use xlink:href="#DejaVuSans-6e" transform="translate(68.408203 0)"/>
     <use xlink:href="#DejaVuSans-6e" transform="translate(131.787109 0)"/>
     <use xlink:href="#DejaVuSans-44" transform="translate(195.166016 0)"/>
     <use xlink:href="#DejaVuSans-61" transform="translate(272.167969 0)"/>
     <use xlink:href="#DejaVuSans-74" transform="translate(333.447266 0)"/>
     <use xlink:href="#DejaVuSans-61" transform="translate(372.65625 0)"/>
     <use xlink:href="#DejaVuSans-2d" transform="translate(433.935547 0)"/>
     <use xlink:href="#DejaVuSans-6f" transform="translate(471.894531 0)"/>
     <use xlink:href="#DejaVuSans-6e" transform="translate(533.076172 0)"/>
     <use xlink:href="#DejaVuSans-6c" transform="translate(596.455078 0)"/>
     <use xlink:href="#DejaVuSans-79" transform="translate(624.238281 0)"/>
    </g>
   </g>
   <g id="text_16">
    <!-- OME-ZARR -->
    <g transform="translate(843.835078 431.663562) scale(0.07 -0.07)">
     <defs>
      <path id="DejaVuSans-4f" d="M 2522 4238
Q 1834 4238 1429 3725
Q 1025 3213 1025 2328
Q 1025 1447 1429 934
Q 1834 422 2522 422
Q 3209 422 3611 934
Q 4013 1447 4013 2328
Q 4013 3213 3611 3725
Q 3209 4238 2522 4238
z
M 2522 4750
Q 3503 4750 4090 4092
Q 4678 3434 4678 2328
Q 4678 1225 4090 567
Q 3503 -91 2522 -91
Q 1538 -91 948 565
Q 359 1222 359 2328
Q 359 3434 948 4092
Q 1538 4750 2522 4750
z
" transform="scale(0.015625)"/>
      <path id="DejaVuSans-45" d="M 628 4666
L 3578 4666
L 3578 4134
L 1259 4134
L 1259 2753
L 3481 2753
L 3481 2222
L 1259 2222
L 1259 531
L 3634 531
L 3634 0
L 628 0
L 628 4666
z
" transform="scale(0.015625)"/>
      <path id="DejaVuSans-5a" d="M 359 4666
L 4025 4666
L 4025 4184
L 1075 531
L 4097 531
L 4097 0
L 288 0
L 288 481
L 3238 4134
L 359 4134
L 359 4666
z
" transform="scale(0.015625)"/>
     </defs>
     <use xlink:href="#DejaVuSans-4f"/>
     <use xlink:href="#DejaVuSans-4d" transform="translate(78.710938 0)"/>
     <use xlink:href="#DejaVuSans-45" transform="translate(164.990234 0)"/>
     <use xlink:href="#DejaVuSans-2d" transform="translate(228.173828 0)"/>
     <use xlink:href="#DejaVuSans-5a" transform="translate(264.257812 0)"/>
     <use xlink:href="#DejaVuSans-41" transform="translate(332.763672 0)"/>
     <use xlink:href="#DejaVuSans-52" transform="translate(401.171875 0)"/>
     <use xlink:href="#DejaVuSans-52" transform="translate(470.654297 0)"/>
    </g>
   </g>
   <g id="text_17">
    <!-- SPATIALDATA / ZARR -->
    <g style="fill: #7b1fa2" transform="translate(432.668437 586.872) scale(0.11 -0.11)">
     <defs>
      <path id="DejaVuSans-Bold-4c" d="M 588 4666
L 1791 4666
L 1791 909
L 3903 909
L 3903 0
L 588 0
L 588 4666
z
" transform="scale(0.015625)"/>
      <path id="DejaVuSans-Bold-2f" d="M 1644 4666
L 2338 4666
L 691 -594
L 0 -594
L 1644 4666
z
" transform="scale(0.015625)"/>
      <path id="DejaVuSans-Bold-5a" d="M 359 4666
L 4281 4666
L 4281 3938
L 1778 909
L 4353 909
L 4353 0
L 288 0
L 288 728
L 2791 3756
L 359 3756
L 359 4666
z
" transform="scale(0.015625)"/>
     </defs>
     <use xlink:href="#DejaVuSans-Bold-53"/>
     <use xlink:href="#DejaVuSans-Bold-50" transform="translate(72.021484 0)"/>
     <use xlink:href="#DejaVuSans-Bold-41" transform="translate(136.1875 0)"/>
     <use xlink:href="#DejaVuSans-Bold-54" transform="translate(205.830078 0)"/>
     <use xlink:href="#DejaVuSans-Bold-49" transform="translate(274.042969 0)"/>
     <use xlink:href="#DejaVuSans-Bold-41" transform="translate(311.25 0)"/>
     <use xlink:href="#DejaVuSans-Bold-4c" transform="translate(388.642578 0)"/>
     <use xlink:href="#DejaVuSans-Bold-44" transform="translate(452.363281 0)"/>
     <use xlink:href="#DejaVuSans-Bold-41" transform="translate(535.371094 0)"/>
     <use xlink:href="#DejaVuSans-Bold-54" transform="translate(605.013672 0)"/>
     <use xlink:href="#DejaVuSans-Bold-41" transform="translate(665.476562 0)"/>
     <use xlink:href="#DejaVuSans-Bold-20" transform="translate(742.869141 0)"/>
     <use xlink:href="#DejaVuSans-Bold-2f" transform="translate(777.683594 0)"/>
     <use xlink:href="#DejaVuSans-Bold-20" transform="translate(814.207031 0)"/>
     <use xlink:href="#DejaVuSans-Bold-5a" transform="translate(849.021484 0)"/>
     <use xlink:href="#DejaVuSans-Bold-41" transform="translate(921.53125 0)"/>
     <use xlink:href="#DejaVuSans-Bold-52" transform="translate(998.923828 0)"/>
     <use xlink:href="#DejaVuSans-Bold-52" transform="translate(1075.925781 0)"/>
    </g>
   </g>
   <g id="text_18">
    <!-- Tables | Shapes | Images | Metadata -->
    <g style="fill: #212121" transform="translate(414.783281 628.776) scale(0.09 -0.09)">
     <defs>
      <path id="DejaVuSans-62" d="M 3116 1747
Q 3116 2381 2855 2742
Q 2594 3103 2138 3103
Q 1681 3103 1420 2742
Q 1159 2381 1159 1747
Q 1159 1113 1420 752
Q 1681 391 2138 391
Q 2594 391 2855 752
Q 3116 1113 3116 1747
z
M 1159 2969
Q 1341 3281 1617 3432
Q 1894 3584 2278 3584
Q 2916 3584 3314 3078
Q 3713 2572 3713 1747
Q 3713 922 3314 415
Q 2916 -91 2278 -91
Q 1894 -91 1617 61
Q 1341 213 1159 525
L 1159 0
L 581 0
L 581 4863
L 1159 4863
L 1159 2969
z
" transform="scale(0.015625)"/>
      <path id="DejaVuSans-20" transform="scale(0.015625)"/>
      <path id="DejaVuSans-7c" d="M 1344 4891
L 1344 -1509
L 813 -1509
L 813 4891
L 1344 4891
z
" transform="scale(0.015625)"/>
      <path id="DejaVuSans-67" d="M 2906 1791
Q 2906 2416 2648 2759
Q 2391 3103 1925 3103
Q 1463 3103 1205 2759
Q 947 2416 947 1791
Q 947 1169 1205 825
Q 1463 481 1925 481
Q 2391 481 2648 825
Q 2906 1169 2906 1791
z
M 3481 434
Q 3481 -459 3084 -895
Q 2688 -1331 1869 -1331
Q 1566 -1331 1297 -1286
Q 1028 -1241 775 -1147
L 775 -588
Q 1028 -725 1275 -790
Q 1522 -856 1778 -856
Q 2344 -856 2625 -561
Q 2906 -266 2906 331
L 2906 616
Q 2728 306 2450 153
Q 2172 0 1784 0
Q 1141 0 747 490
Q 353 981 353 1791
Q 353 2603 747 3093
Q 1141 3584 1784 3584
Q 2172 3584 2450 3431
Q 2728 3278 2906 2969
L 2906 3500
L 3481 3500
L 3481 434
z
" transform="scale(0.015625)"/>
     </defs>
     <use xlink:href="#DejaVuSans-54"/>
     <use xlink:href="#DejaVuSans-61" transform="translate(44.583984 0)"/>
     <use xlink:href="#DejaVuSans-62" transform="translate(105.863281 0)"/>
     <use xlink:href="#DejaVuSans-6c" transform="translate(169.339844 0)"/>
     <use xlink:href="#DejaVuSans-65" transform="translate(197.123047 0)"/>
     <use xlink:href="#DejaVuSans-73" transform="translate(258.646484 0)"/>
     <use xlink:href="#DejaVuSans-20" transform="translate(310.746094 0)"/>
     <use xlink:href="#DejaVuSans-7c" transform="translate(342.533203 0)"/>
     <use xlink:href="#DejaVuSans-20" transform="translate(376.224609 0)"/>
     <use xlink:href="#DejaVuSans-53" transform="translate(408.011719 0)"/>
     <use xlink:href="#DejaVuSans-68" transform="translate(471.488281 0)"/>
     <use xlink:href="#DejaVuSans-61" transform="translate(534.867188 0)"/>
     <use xlink:href="#DejaVuSans-70" transform="translate(596.146484 0)"/>
     <use xlink:href="#DejaVuSans-65" transform="translate(659.623047 0)"/>
     <use xlink:href="#DejaVuSans-73" transform="translate(721.146484 0)"/>
     <use xlink:href="#DejaVuSans-20" transform="translate(773.246094 0)"/>
     <use xlink:href="#DejaVuSans-7c" transform="translate(805.033203 0)"/>
     <use xlink:href="#DejaVuSans-20" transform="translate(838.724609 0)"/>
     <use xlink:href="#DejaVuSans-49" transform="translate(870.511719 0)"/>
     <use xlink:href="#DejaVuSans-6d" transform="translate(900.003906 0)"/>
     <use xlink:href="#DejaVuSans-61" transform="translate(997.416016 0)"/>
     <use xlink:href="#DejaVuSans-67" transform="translate(1058.695312 0)"/>
     <use xlink:href="#DejaVuSans-65" transform="translate(1122.171875 0)"/>
     <use xlink:href="#DejaVuSans-73" transform="translate(1183.695312 0)"/>
     <use xlink:href="#DejaVuSans-20" transform="translate(1235.794922 0)"/>
     <use xlink:href="#DejaVuSans-7c" transform="translate(1267.582031 0)"/>
     <use xlink:href="#DejaVuSans-20" transform="translate(1301.273438 0)"/>
     <use xlink:href="#DejaVuSans-4d" transform="translate(1333.060547 0)"/>
     <use xlink:href="#DejaVuSans-65" transform="translate(1419.339844 0)"/>
     <use xlink:href="#DejaVuSans-74" transform="translate(1480.863281 0)"/>
     <use xlink:href="#DejaVuSans-61" transform="translate(1520.072266 0)"/>
     <use xlink:href="#DejaVuSans-64" transform="translate(1581.351562 0)"/>
     <use xlink:href="#DejaVuSans-61" transform="translate(1644.828125 0)"/>
     <use xlink:href="#DejaVuSans-74" transform="translate(1706.107422 0)"/>
     <use xlink:href="#DejaVuSans-61" transform="translate(1745.316406 0)"/>
    </g>
   </g>
   <g id="patch_19">
    <path d="M 218.704818 321.241822
Q 304.020746 311.00391 387.116534 301.032416
" style="fill: none; stroke: #424242; stroke-width: 2; stroke-linecap: round"/>
    <path d="M 382.906736 299.523243
L 387.116534 301.032416
L 383.383317 303.49475
" style="fill: none; stroke: #424242; stroke-width: 2; stroke-linecap: round"/>
   </g>
   <g id="patch_20">
    <path d="M 602.824818 300.766178
Q 688.140746 311.00409 771.236534 320.975584
" style="fill: none; stroke: #424242; stroke-width: 2; stroke-linecap: round"/>
    <path d="M 767.503317 318.51325
L 771.236534 320.975584
L 767.026736 322.484757
" style="fill: none; stroke: #424242; stroke-width: 2; stroke-linecap: round"/>
   </g>
   <g id="patch_21">
    <path d="M 496.08 463.158138
Q 496.08 513.540239 496.08 561.686273
" style="fill: none; stroke: #424242; stroke-width: 2; stroke-linecap: round"/>
    <path d="M 498.08 557.686273
L 496.08 561.686273
L 494.08 557.686273
" style="fill: none; stroke: #424242; stroke-width: 2; stroke-linecap: round"/>
   </g>
   <g id="text_19">
    <!-- Legend: -->
    <g transform="translate(42.12 600.84) scale(0.09 -0.09)">
     <defs>
      <path id="DejaVuSans-Bold-3a" d="M 716 3500
L 1844 3500
L 1844 2291
L 716 2291
L 716 3500
z
M 716 1209
L 1844 1209
L 1844 0
L 716 0
L 716 1209
z
" transform="scale(0.015625)"/>
     </defs>
     <use xlink:href="#DejaVuSans-Bold-4c"/>
     <use xlink:href="#DejaVuSans-Bold-65" transform="translate(63.720703 0)"/>
     <use xlink:href="#DejaVuSans-Bold-67" transform="translate(131.542969 0)"/>
     <use xlink:href="#DejaVuSans-Bold-65" transform="translate(203.125 0)"/>
     <use xlink:href="#DejaVuSans-Bold-6e" transform="translate(270.947266 0)"/>
     <use xlink:href="#DejaVuSans-Bold-64" transform="translate(342.138672 0)"/>
     <use xlink:href="#DejaVuSans-Bold-3a" transform="translate(413.720703 0)"/>
    </g>
   </g>
   <g id="text_20">
    <!-- Current Implementation -->
    <g transform="translate(84.024 630.9835) scale(0.08 -0.08)">
     <defs>
      <path id="DejaVuSans-43" d="M 4122 4306
L 4122 3641
Q 3803 3938 3442 4084
Q 3081 4231 2675 4231
Q 1875 4231 1450 3742
Q 1025 3253 1025 2328
Q 1025 1406 1450 917
Q 1875 428 2675 428
Q 3081 428 3442 575
Q 3803 722 4122 1019
L 4122 359
Q 3791 134 3420 21
Q 3050 -91 2638 -91
Q 1578 -91 968 557
Q 359 1206 359 2328
Q 359 3453 968 4101
Q 1578 4750 2638 4750
Q 3056 4750 3426 4639
Q 3797 4528 4122 4306
z
" transform="scale(0.015625)"/>
     </defs>
     <use xlink:href="#DejaVuSans-43"/>
     <use xlink:href="#DejaVuSans-75" transform="translate(69.824219 0)"/>
     <use xlink:href="#DejaVuSans-72" transform="translate(133.203125 0)"/>
     <use xlink:href="#DejaVuSans-72" transform="translate(172.566406 0)"/>
     <use xlink:href="#DejaVuSans-65" transform="translate(211.429688 0)"/>
     <use xlink:href="#DejaVuSans-6e" transform="translate(272.953125 0)"/>
     <use xlink:href="#DejaVuSans-74" transform="translate(336.332031 0)"/>
     <use xlink:href="#DejaVuSans-20" transform="translate(375.541016 0)"/>
     <use xlink:href="#DejaVuSans-49" transform="translate(407.328125 0)"/>
     <use xlink:href="#DejaVuSans-6d" transform="translate(436.820312 0)"/>
     <use xlink:href="#DejaVuSans-70" transform="translate(534.232422 0)"/>
     <use xlink:href="#DejaVuSans-6c" transform="translate(597.708984 0)"/>
     <use xlink:href="#DejaVuSans-65" transform="translate(625.492188 0)"/>
     <use xlink:href="#DejaVuSans-6d" transform="translate(687.015625 0)"/>
     <use xlink:href="#DejaVuSans-65" transform="translate(784.427734 0)"/>
     <use xlink:href="#DejaVuSans-6e" transform="translate(845.951172 0)"/>
     <use xlink:href="#DejaVuSans-74" transform="translate(909.330078 0)"/>
     <use xlink:href="#DejaVuSans-61" transform="translate(948.539062 0)"/>
     <use xlink:href="#DejaVuSans-74" transform="translate(1009.818359 0)"/>
     <use xlink:href="#DejaVuSans-69" transform="translate(1049.027344 0)"/>
     <use xlink:href="#DejaVuSans-6f" transform="translate(1076.810547 0)"/>
     <use xlink:href="#DejaVuSans-6e" transform="translate(1137.992188 0)"/>
    </g>
   </g>
   <g id="text_21">
    <!-- Community Extension Point -->
    <g transform="translate(84.024 665.9035) scale(0.08 -0.08)">
     <defs>
      <path id="DejaVuSans-78" d="M 3513 3500
L 2247 1797
L 3578 0
L 2900 0
L 1881 1375
L 863 0
L 184 0
L 1544 1831
L 300 3500
L 978 3500
L 1906 2253
L 2834 3500
L 3513 3500
z
" transform="scale(0.015625)"/>
      <path id="DejaVuSans-50" d="M 1259 4147
L 1259 2394
L 2053 2394
Q 2494 2394 2734 2622
Q 2975 2850 2975 3272
Q 2975 3691 2734 3919
Q 2494 4147 2053 4147
L 1259 4147
z
M 628 4666
L 2053 4666
Q 2838 4666 3239 4311
Q 3641 3956 3641 3272
Q 3641 2581 3239 2228
Q 2838 1875 2053 1875
L 1259 1875
L 1259 0
L 628 0
L 628 4666
z
" transform="scale(0.015625)"/>
     </defs>
     <use xlink:href="#DejaVuSans-43"/>
     <use xlink:href="#DejaVuSans-6f" transform="translate(69.824219 0)"/>
     <use xlink:href="#DejaVuSans-6d" transform="translate(131.005859 0)"/>
     <use xlink:href="#DejaVuSans-6d" transform="translate(228.417969 0)"/>
     <use xlink:href="#DejaVuSans-75" transform="translate(325.830078 0)"/>
     <use xlink:href="#DejaVuSans-6e" transform="translate(389.208984 0)"/>
     <use xlink:href="#DejaVuSans-69" transform="translate(452.587891 0)"/>
     <use xlink:href="#DejaVuSans-74" transform="translate(480.371094 0)"/>
     <use xlink:href="#DejaVuSans-79" transform="translate(519.580078 0)"/>
     <use xlink:href="#DejaVuSans-20" transform="translate(578.759766 0)"/>
     <use xlink:href="#DejaVuSans-45" transform="translate(610.546875 0)"/>
     <use xlink:href="#DejaVuSans-78" transform="translate(673.730469 0)"/>
     <use xlink:href="#DejaVuSans-74" transform="translate(732.910156 0)"/>
     <use xlink:href="#DejaVuSans-65" transform="translate(772.119141 0)"/>
     <use xlink:href="#DejaVuSans-6e" transform="translate(833.642578 0)"/>
     <use xlink:href="#DejaVuSans-73" transform="translate(897.021484 0)"/>
     <use xlink:href="#DejaVuSans-69" transform="translate(949.121094 0)"/>
     <use xlink:href="#DejaVuSans-6f" transform="translate(976.904297 0)"/>
     <use xlink:href="#DejaVuSans-6e" transform="translate(1038.085938 0)"/>
     <use xlink:href="#DejaVuSans-20" transform="translate(1101.464844 0)"/>
     <use xlink:href="#DejaVuSans-50" transform="translate(1133.251953 0)"/>
     <use xlink:href="#DejaVuSans-6f" transform="translate(1189.929688 0)"/>
     <use xlink:href="#DejaVuSans-69" transform="translate(1251.111328 0)"/>
     <use xlink:href="#DejaVuSans-6e" transform="translate(1278.894531 0)"/>
     <use xlink:href="#DejaVuSans-74" transform="translate(1342.273438 0)"/>
    </g>
   </g>
  </g>
 </g>
 <defs>
  <clipPath id="pad4d245279">
   <rect x="7.2" y="7.2" width="977.76" height="698.4"/>
  </clipPath>
 </defs>
</svg>
